<?xml version="1.0" encoding="utf-8"?>
<!-- Generator: Adobe Illustrator 20.1.0, SVG Export Plug-In . SVG Version: 6.00 Build 0)  -->
<svg version="1.1" id="Capa_1" xmlns="http://www.w3.org/2000/svg" xmlns:xlink="http://www.w3.org/1999/xlink" x="0px" y="0px"
	 viewBox="0 0 512 512" style="enable-background:new 0 0 512 512;" xml:space="preserve">
<style type="text/css">
	.st0{fill:#FFFFFF;stroke:#000000;stroke-miterlimit:10;}
	.st1{fill:#F03434;}
</style>
<rect x="175" y="85" class="st0" width="165" height="159"/>
<g>
	<path class="st1" d="M256.4,0h-0.7C167.2,0,95.3,71.9,95.3,160.3c0,57.9,26.4,134.4,78.4,227.3c38.6,68.9,77.7,121.6,78.1,122.1
		c1.1,1.5,2.8,2.3,4.6,2.3c0.1,0,0.1,0,0.2,0c1.9-0.1,3.6-1,4.6-2.6c0.4-0.6,39.2-59.2,77.5-131c51.7-96.8,77.9-170.2,77.9-218.1
		C416.7,71.9,344.8,0,256.4,0z M330.4,164.2c0,41-33.4,74.4-74.4,74.4c-41,0-74.4-33.4-74.4-74.4S215,89.8,256,89.8
		C297,89.8,330.4,123.2,330.4,164.2z"/>
</g>
</svg>
